<mxfile host="app.diagrams.net" modified="2021-08-06T06:12:46.569Z" agent="5.0 (Windows)" etag="UFsZviQ06sjEIizmVwu5" version="14.1.4" type="github">
  <diagram id="c7AardAmtZzO1czK6ol6" name="Page-1">
    <mxGraphModel dx="868" dy="398" grid="1" gridSize="10" guides="1" tooltips="1" connect="1" arrows="1" fold="1" page="1" pageScale="1" pageWidth="827" pageHeight="1169" math="0" shadow="0">
      <root>
        <mxCell id="0" />
        <mxCell id="1" parent="0" />
        <mxCell id="vyU_hMmgsXmub1G23cL0-4" value="" style="group" parent="1" vertex="1" connectable="0">
          <mxGeometry x="370" y="170" width="80" height="80" as="geometry" />
        </mxCell>
        <mxCell id="vyU_hMmgsXmub1G23cL0-1" value="" style="ellipse;whiteSpace=wrap;html=1;aspect=fixed;" parent="vyU_hMmgsXmub1G23cL0-4" vertex="1">
          <mxGeometry width="80" height="80" as="geometry" />
        </mxCell>
        <mxCell id="vyU_hMmgsXmub1G23cL0-2" value="" style="ellipse;whiteSpace=wrap;html=1;aspect=fixed;strokeWidth=5;strokeColor=#6666FF;" parent="vyU_hMmgsXmub1G23cL0-4" vertex="1">
          <mxGeometry width="80" height="80" as="geometry" />
        </mxCell>
        <mxCell id="vyU_hMmgsXmub1G23cL0-3" value="" style="ellipse;whiteSpace=wrap;html=1;aspect=fixed;strokeWidth=6;fillColor=#dae8fc;strokeColor=#6c8ebf;" parent="vyU_hMmgsXmub1G23cL0-4" vertex="1">
          <mxGeometry x="10" y="10" width="60" height="60" as="geometry" />
        </mxCell>
        <UserObject label="TPP" link="https://blog.cleancoder.com/uncle-bob/2013/05/27/TheTransformationPriorityPremise.html" id="vyU_hMmgsXmub1G23cL0-5">
          <mxCell style="text;html=1;strokeColor=none;fillColor=none;align=left;verticalAlign=middle;whiteSpace=wrap;rounded=0;rotation=-46;fontSize=27;fontColor=#0000FF;fontStyle=1" parent="1" vertex="1">
            <mxGeometry x="430" y="120" width="110" height="20" as="geometry" />
          </mxCell>
        </UserObject>
      </root>
    </mxGraphModel>
  </diagram>
</mxfile>
